# File created by Blade
# Date/Time:  Thu Jan 22 19:08:58 2015
# Frame Rate: 120.000 fps
#------------------------------------------------------
:FULLY-SPECIFIED
:DEGREES
3432
root -2.705168 33.358205 -1.393093 9.044033 -2.286995 2.400588
RightUpLeg -4.185137 -9.964982 -2.160398
RightLeg -1.142715 -0.000000 0.000000
RightFoot -8.133830 -2.776453 4.988486
RightToeBase -2.577416 -0.000000 0.000000
LeftUpLeg -4.013749 7.581014 3.251521
LeftLeg 0.029360 -0.000000 -0.000000
LeftFoot -6.072124 -1.006350 -12.517676
LeftToeBase 7.069740 -0.000000 -0.000000
Spine -5.037590 -2.748545 -0.118935
RightShoulder -32.347453 -28.948356 -20.196794
RightArm 0.959105 60.051779 60.002266
RightForeArm 39.816200 -0.000000 16.521290
RightHand 21.792162 -0.000000 -43.199919
RightHandThumb1 -24.326973 -0.000000 -32.862282
LeftShoulder -31.557157 17.009629 29.246111
LeftArm -22.891577 -45.864771 -31.994927
LeftForeArm -23.996885 -0.000000 4.124666
LeftHand -2.855757 -0.000000 11.283542
LeftHandThumb1 -26.253704 0.000000 33.147579
Head 11.789419 12.493145 2.028197
3433
root -2.704371 33.358272 -1.395079 9.026472 -2.270587 2.407787
RightUpLeg -4.181469 -10.018874 -2.164407
RightLeg -1.114361 -0.000000 0.000000
RightFoot -8.152283 -2.751289 4.939952
RightToeBase -2.621942 -0.000000 0.000000
LeftUpLeg -4.023532 7.609491 3.242496
LeftLeg 0.067365 -0.000000 -0.000000
LeftFoot -6.078865 -1.049791 -12.516996
LeftToeBase 7.124463 -0.000000 -0.000000
Spine -5.026225 -2.739858 -0.121919
RightShoulder -32.326149 -28.947384 -20.222883
RightArm 0.982700 59.902992 60.001927
RightForeArm 39.530947 -0.000000 16.504025
RightHand 21.703625 -0.000000 -43.125972
RightHandThumb1 -24.326973 -0.000000 -32.862282
LeftShoulder -31.563838 17.035337 29.205629
LeftArm -22.779116 -45.893967 -32.083699
LeftForeArm -23.889924 -0.000000 4.125525
LeftHand -2.866334 -0.000000 11.253981
LeftHandThumb1 -26.253704 0.000000 33.147579
Head 11.817061 12.476525 1.990006
3434
root -2.703782 33.357645 -1.396432 9.009161 -2.242568 2.409691
RightUpLeg -4.174344 -10.044292 -2.164835
RightLeg -1.090217 -0.000000 0.000000
RightFoot -8.168060 -2.753507 4.954568
RightToeBase -2.642476 -0.000000 0.000000
LeftUpLeg -4.031975 7.611954 3.242404
LeftLeg 0.103281 -0.000000 -0.000000
LeftFoot -6.094685 -1.081239 -12.505607
LeftToeBase 7.161736 -0.000000 -0.000000
Spine -5.020538 -2.748784 -0.116732
RightShoulder -32.286722 -28.951912 -20.252664
RightArm 0.995792 59.770945 59.981090
RightForeArm 39.360695 -0.000000 16.462364
RightHand 21.744117 -0.000000 -42.892738
RightHandThumb1 -24.326973 -0.000000 -32.862282
LeftShoulder -31.564639 17.044447 29.192367
LeftArm -22.673961 -45.871527 -32.174671
LeftForeArm -23.818674 -0.000000 4.108963
LeftHand -2.850536 0.000000 11.212135
LeftHandThumb1 -26.253704 0.000000 33.147579
Head 11.845265 12.476489 1.968251
3435
root -2.703149 33.357131 -1.397538 8.993989 -2.218879 2.409056
RightUpLeg -4.173636 -10.098570 -2.158449
RightLeg -1.056339 -0.000000 0.000000
RightFoot -8.192620 -2.743330 4.916140
RightToeBase -2.665863 -0.000000 0.000000
LeftUpLeg -4.039586 7.622578 3.241881
LeftLeg 0.136864 -0.000000 -0.000000
LeftFoot -6.106243 -1.108184 -12.489274
LeftToeBase 7.168583 -0.000000 -0.000000
Spine -5.014006 -2.742541 -0.107218
RightShoulder -32.283700 -28.987909 -20.245598
RightArm 1.080185 59.649876 60.009639
RightForeArm 39.294302 -0.000000 16.417376
RightHand 21.811991 -0.000000 -42.603911
RightHandThumb1 -24.326973 -0.000000 -32.862282
LeftShoulder -31.574700 17.057008 29.159505
LeftArm -22.537734 -45.855471 -32.271758
LeftForeArm -23.719584 0.000000 4.100557
LeftHand -2.889088 -0.000000 11.163443
LeftHandThumb1 -26.253704 0.000000 33.147579
Head 11.852705 12.451677 1.925317
3436
root -2.701606 33.356456 -1.397965 8.977370 -2.195113 2.415687
RightUpLeg -4.168243 -10.133391 -2.165649
RightLeg -1.026053 -0.000000 0.000000
RightFoot -8.218972 -2.739665 4.912795
RightToeBase -2.714930 -0.000000 0.000000
LeftUpLeg -4.043860 7.636669 3.235268
LeftLeg 0.164748 -0.000000 -0.000000
LeftFoot -6.105890 -1.146826 -12.488363
LeftToeBase 7.186408 -0.000000 -0.000000
Spine -5.007088 -2.736407 -0.109484
RightShoulder -32.270472 -28.980996 -20.249692
RightArm 1.105851 59.546531 59.970438
RightForeArm 39.204358 0.000000 16.382990
RightHand 21.826424 -0.000000 -42.352930
RightHandThumb1 -24.326973 -0.000000 -32.862282
LeftShoulder -31.563833 17.046818 29.161935
LeftArm -22.449942 -45.825094 -32.343625
LeftForeArm -23.627331 -0.000000 4.093031
LeftHand -2.889802 -0.000000 11.158185
LeftHandThumb1 -26.253704 0.000000 33.147579
Head 11.851392 12.440800 1.896925
3437
root -2.700981 33.355753 -1.398436 8.958440 -2.170451 2.414368
RightUpLeg -4.156979 -10.151762 -2.165828
RightLeg -1.000929 -0.000000 0.000000
RightFoot -8.245413 -2.741781 4.899172
RightToeBase -2.678434 -0.000000 0.000000
LeftUpLeg -4.045251 7.619241 3.241508
LeftLeg 0.196748 -0.000000 -0.000000
LeftFoot -6.131583 -1.166326 -12.500056
LeftToeBase 7.213773 -0.000000 -0.000000
Spine -4.993745 -2.743032 -0.096485
RightShoulder -32.271899 -29.021263 -20.229531
RightArm 1.244822 59.472715 60.039592
RightForeArm 39.177075 -0.000000 16.373427
RightHand 21.758343 -0.000000 -42.105303
RightHandThumb1 -24.326973 -0.000000 -32.862282
LeftShoulder -31.565255 17.032057 29.146066
LeftArm -22.350888 -45.774582 -32.404134
LeftForeArm -23.526572 -0.000000 4.068492
LeftHand -2.904101 -0.000000 11.095835
LeftHandThumb1 -26.253704 0.000000 33.147579
Head 11.836065 12.446579 1.839532
3438
root -2.699615 33.354477 -1.399234 8.941948 -2.161179 2.418861
RightUpLeg -4.152666 -10.133273 -2.175775
RightLeg -0.973262 -0.000000 0.000000
RightFoot -8.277357 -2.779198 4.911422
RightToeBase -2.658602 -0.000000 0.000000
LeftUpLeg -4.043362 7.609109 3.235107
LeftLeg 0.221255 -0.000000 -0.000000
LeftFoot -6.154090 -1.154024 -12.478726
LeftToeBase 7.213181 -0.000000 -0.000000
Spine -4.997269 -2.704381 -0.100556
RightShoulder -32.257446 -29.059855 -20.226616
RightArm 1.268572 59.469950 60.040911
RightForeArm 39.228838 -0.000000 16.399863
RightHand 21.764570 -0.000000 -41.744434
RightHandThumb1 -24.326973 -0.000000 -32.862282
LeftShoulder -31.516068 17.032409 29.154692
LeftArm -22.265522 -45.735099 -32.478456
LeftForeArm -23.426370 -0.000000 4.097445
LeftHand -3.132909 -0.000000 11.005212
LeftHandThumb1 -26.253704 0.000000 33.147579
Head 11.837622 12.462962 1.803144
3439
root -2.700319 33.353813 -1.399106 8.922986 -2.150513 2.410055
RightUpLeg -4.139310 -10.088476 -2.172480
RightLeg -0.954142 -0.000000 0.000000
RightFoot -8.294732 -2.829680 4.911379
RightToeBase -2.618449 -0.000000 0.000000
LeftUpLeg -4.037940 7.590667 3.247582
LeftLeg 0.245615 -0.000000 -0.000000
LeftFoot -6.177600 -1.136610 -12.468011
LeftToeBase 7.211551 -0.000000 -0.000000
Spine -4.982407 -2.690336 -0.085698
RightShoulder -32.299332 -29.079678 -20.210715
RightArm 1.442632 59.452866 60.143802
RightForeArm 39.239113 0.000000 16.410448
RightHand 21.737569 -0.000000 -41.505780
RightHandThumb1 -24.326973 -0.000000 -32.862282
LeftShoulder -31.526392 17.029333 29.137920
LeftArm -22.117393 -45.656930 -32.572462
LeftForeArm -23.335593 -0.000000 4.065221
LeftHand -3.152016 -0.000000 10.823189
LeftHandThumb1 -26.253704 0.000000 33.147579
Head 11.819379 12.453879 1.775865
3440
root -2.700174 33.352668 -1.398389 8.906219 -2.146860 2.408730
RightUpLeg -4.122367 -10.018700 -2.182427
RightLeg -0.945333 -0.000000 0.000000
RightFoot -8.324386 -2.879497 4.910093
RightToeBase -2.522448 -0.000000 0.000000
LeftUpLeg -4.028142 7.595362 3.249961
LeftLeg 0.260822 -0.000000 -0.000000
LeftFoot -6.197458 -1.147907 -12.454208
LeftToeBase 7.219020 -0.000000 -0.000000
Spine -4.976980 -2.673624 -0.081268
RightShoulder -32.280178 -29.082797 -20.209650
RightArm 1.480866 59.431530 60.113717
RightForeArm 39.164242 -0.000000 16.390217
RightHand 21.679384 0.000000 -41.274644
RightHandThumb1 -24.326973 -0.000000 -32.862282
LeftShoulder -31.529220 17.043365 29.114649
LeftArm -21.984347 -45.592959 -32.647597
LeftForeArm -23.221111 -0.000000 4.048083
LeftHand -3.213705 -0.000000 10.526649
LeftHandThumb1 -26.253704 0.000000 33.147579
Head 11.803493 12.481885 1.746125
3441
root -2.701397 33.351171 -1.397857 8.897279 -2.135279 2.401560
RightUpLeg -4.115840 -9.980824 -2.177315
RightLeg -0.930963 -0.000000 0.000000
RightFoot -8.339043 -2.918143 4.951313
RightToeBase -2.546927 -0.000000 0.000000
LeftUpLeg -4.031629 7.591084 3.259628
LeftLeg 0.283997 -0.000000 -0.000000
LeftFoot -6.223329 -1.151123 -12.468363
LeftToeBase 7.248881 -0.000000 -0.000000
Spine -4.974703 -2.662995 -0.080862
RightShoulder -32.257215 -29.003079 -20.247943
RightArm 1.396878 59.357663 59.954753
RightForeArm 39.067435 0.000000 16.324990
RightHand 21.670642 -0.000000 -40.896217
RightHandThumb1 -24.326973 -0.000000 -32.862282
LeftShoulder -31.534995 17.039332 29.116370
LeftArm -21.862056 -45.507232 -32.713570
LeftForeArm -23.118211 0.000000 4.019708
LeftHand -3.217649 -0.000000 10.235999
LeftHandThumb1 -26.253704 0.000000 33.147579
Head 11.758791 12.502766 1.737737
3442
root -2.702213 33.350354 -1.396971 8.892990 -2.128069 2.399632
RightUpLeg -4.116360 -9.944992 -2.177306
RightLeg -0.912744 -0.000000 0.000000
RightFoot -8.366675 -2.968878 4.943049
RightToeBase -2.468530 -0.000000 0.000000
LeftUpLeg -4.035713 7.597499 3.262527
LeftLeg 0.303401 -0.000000 -0.000000
LeftFoot -6.236872 -1.160665 -12.452049
LeftToeBase 7.254601 -0.000000 -0.000000
Spine -4.986683 -2.655026 -0.084838
RightShoulder -32.243247 -28.991647 -20.251618
RightArm 1.454929 59.303484 59.915896
RightForeArm 38.863616 -0.000000 16.247467
RightHand 21.630282 -0.000000 -40.663770
RightHandThumb1 -24.326973 -0.000000 -32.862282
LeftShoulder -31.536245 17.041821 29.109834
LeftArm -21.766419 -45.434902 -32.749853
LeftForeArm -23.040572 -0.000000 4.017842
LeftHand -3.240170 -0.000000 9.901352
LeftHandThumb1 -26.253704 0.000000 33.147579
Head 11.739008 12.535445 1.733973
3443
root -2.702643 33.349445 -1.395574 8.884793 -2.125236 2.399124
RightUpLeg -4.104658 -9.875371 -2.184893
RightLeg -0.909799 -0.000000 0.000000
RightFoot -8.381734 -3.025932 4.972090
RightToeBase -2.474820 -0.000000 0.000000
LeftUpLeg -4.032210 7.589082 3.264923
LeftLeg 0.317199 -0.000000 -0.000000
LeftFoot -6.251986 -1.158166 -12.444539
LeftToeBase 7.260788 -0.000000 -0.000000
Spine -4.993178 -2.642602 -0.090792
RightShoulder -32.220924 -28.914819 -20.319779
RightArm 1.385725 59.264481 59.797635
RightForeArm 38.722132 -0.000000 16.144891
RightHand 22.014134 -0.000000 -39.882737
RightHandThumb1 -24.326973 -0.000000 -32.862282
LeftShoulder -31.529213 17.025676 29.097794
LeftArm -21.704531 -45.362649 -32.730606
LeftForeArm -22.806064 -0.000000 3.991211
LeftHand -3.214115 0.000000 9.396043
LeftHandThumb1 -26.253704 0.000000 33.147579
Head 11.714052 12.539645 1.729753
3444
root -2.703686 33.348533 -1.394788 8.886788 -2.114297 2.394929
RightUpLeg -4.109151 -9.854320 -2.181740
RightLeg -0.894942 -0.000000 0.000000
RightFoot -8.398399 -3.047012 4.981081
RightToeBase -2.488732 -0.000000 0.000000
LeftUpLeg -4.042739 7.576689 3.271362
LeftLeg 0.333544 -0.000000 -0.000000
LeftFoot -6.271274 -1.160733 -12.451115
LeftToeBase 7.285789 -0.000000 -0.000000
Spine -5.013296 -2.639953 -0.087445
RightShoulder -32.214155 -28.979453 -20.285379
RightArm 1.544579 59.155744 59.835136
RightForeArm 38.338630 -0.000000 16.098685
RightHand 21.810387 -0.000000 -39.658416
RightHandThumb1 -24.326973 -0.000000 -32.862282
LeftShoulder -31.541359 17.049925 29.051666
LeftArm -21.573855 -45.326062 -32.754259
LeftForeArm -22.626855 -0.000000 3.986354
LeftHand -3.218646 -0.000000 8.987039
LeftHandThumb1 -26.253704 0.000000 33.147579
Head 11.691524 12.561239 1.718263
